<?xml version="1.0" encoding="utf-8"?>
<!-- Generator: Adobe Illustrator 28.0.0, SVG Export Plug-In . SVG Version: 6.00 Build 0)  -->
<svg version="1.1" id="OBJECTS" xmlns="http://www.w3.org/2000/svg" xmlns:xlink="http://www.w3.org/1999/xlink" x="0px" y="0px"
	 viewBox="0 0 595.28 841.89" style="enable-background:new 0 0 595.28 841.89;" xml:space="preserve">
<style type="text/css">
	.st0{fill:#FFFFFF;}
	.st1{fill:#B1DBF2;}
	.st2{fill:#0A405E;}
</style>
<rect x="-8.5" y="-8.5" class="st0" width="612.28" height="859.08"/>
<path class="st1" d="M603.78-8.5H-8.5v115.42h204.74c22.86,0,44.78-7.2,60.95-20.02l64.83-51.41
	c16.16-12.82,38.09-20.02,60.95-20.02h220.82V-8.5z"/>
<path class="st2" d="M603.78-8.5H-8.5v115.42h132.9c22.86,0,44.78-7.2,60.95-20.02l64.83-51.41c16.16-12.82,38.09-20.02,60.95-20.02
	h292.66V-8.5z"/>
<g>
	<polygon class="st1" points="455.36,266.62 453.99,266.62 483.2,234.68 484.57,234.68 	"/>
	<polygon class="st1" points="463.96,266.62 462.58,266.62 491.8,234.68 493.17,234.68 	"/>
	<polygon class="st1" points="472.55,266.62 471.18,266.62 500.4,234.68 501.77,234.68 	"/>
	<polygon class="st1" points="481.15,266.62 479.78,266.62 508.99,234.68 510.37,234.68 	"/>
	<polygon class="st1" points="489.75,266.62 488.38,266.62 517.59,234.68 518.96,234.68 	"/>
	<polygon class="st1" points="498.35,266.62 496.97,266.62 526.19,234.68 527.56,234.68 	"/>
	<polygon class="st1" points="506.94,266.62 505.57,266.62 534.79,234.68 536.16,234.68 	"/>
	<polygon class="st1" points="515.54,266.62 514.17,266.62 543.38,234.68 544.76,234.68 	"/>
	<polygon class="st1" points="524.14,266.62 522.76,266.62 551.98,234.68 553.35,234.68 	"/>
</g>
<path class="st1" d="M-8.5,850.57h540.44V735.16h-132.9c-22.86,0-44.78,7.2-60.95,20.02l-64.83,51.41
	c-16.16,12.82-38.09,20.02-60.95,20.02H-8.5V850.57z"/>
<path class="st2" d="M-8.5,850.57h612.28V735.16h-132.9c-22.86,0-44.78,7.2-60.95,20.02l-64.83,51.41
	c-16.16,12.82-38.09,20.02-60.95,20.02H-8.5V850.57z"/>
<path class="st1" d="M603.78,634.34c-10.8,0-19.56-8.76-19.56-19.56c0-10.8,8.76-19.56,19.56-19.56v-22.27
	c-23.1,0-41.82,18.73-41.82,41.82c0,23.1,18.73,41.82,41.82,41.82V634.34z"/>
<path class="st1" d="M-8.5,203.37c10.8,0,19.56,8.76,19.56,19.56c0,10.8-8.76,19.56-19.56,19.56v22.27
	c23.1,0,41.82-18.73,41.82-41.82c0-23.1-18.73-41.82-41.82-41.82V203.37z"/>
<g>
</g>
<g>
</g>
<g>
</g>
<g>
</g>
<g>
</g>
<g>
</g>
</svg>
