<?xml version="1.0" encoding="utf-8"?>
<!-- Generator: Adobe Illustrator 28.0.0, SVG Export Plug-In . SVG Version: 6.00 Build 0)  -->
<svg version="1.1" id="Capa_1" xmlns="http://www.w3.org/2000/svg" xmlns:xlink="http://www.w3.org/1999/xlink" x="0px" y="0px"
	 viewBox="0 0 338.09 86" style="enable-background:new 0 0 338.09 86;" xml:space="preserve">
<style type="text/css">
	.st0{fill:#FFFFFF;}
	.st1{fill:#F8C400;}
	.st2{fill-rule:evenodd;clip-rule:evenodd;fill:#F8C400;}
	.st3{fill-rule:evenodd;clip-rule:evenodd;fill:#CBCCD3;}
</style>
<g id="MEDINAFARMA">
	<path class="st0" d="M86.69,66.16h-6.71l-1.53-16.73c-0.12-1.18-0.2-2.52-0.29-3.96c-0.1-1.43-0.18-3.01-0.25-4.73
		c-0.15,1.63-0.5,3.68-0.98,6.13c-0.12,0.51-0.2,0.89-0.25,1.14L73.1,66.16h-4.76l-3.57-18.15c-0.07-0.26-0.14-0.64-0.24-1.14
		c-0.49-2.45-0.82-4.49-0.96-6.09c-0.08,1.46-0.17,2.88-0.28,4.33c-0.08,1.45-0.19,2.86-0.32,4.32l-1.55,16.73h-6.65l4.04-38.73h7.1
		l3.96,19.98c0.05,0.13,0.08,0.37,0.13,0.67c0.39,1.78,0.63,3.32,0.71,4.57c0.04-0.67,0.13-1.45,0.26-2.26
		c0.14-0.85,0.31-1.85,0.54-3.04l4.01-19.91h7.12L86.69,66.16z M90.56,66.16V27.43h16.09v8.48h-9.1v6.73h8.62v8.29h-8.62v6.55h9.1
		v8.68H90.56z M111.42,66.16V27.43h5.49c4.07,0,6.95,0.27,8.61,0.85c1.74,0.54,3.2,1.51,4.49,2.83c1.67,1.7,2.92,3.9,3.83,6.58
		c0.83,2.65,1.25,5.71,1.25,9.12c0,3.43-0.41,6.47-1.25,9.14c-0.91,2.68-2.16,4.86-3.83,6.58c-1.25,1.28-2.71,2.23-4.38,2.79
		c-1.6,0.52-4.13,0.83-7.54,0.83h-1.19H111.42z M118.51,57.47h1.18c2.82,0,4.9-0.84,6.18-2.58c1.29-1.67,1.91-4.37,1.91-8.08
		c0-3.72-0.62-6.44-1.91-8.14c-1.28-1.72-3.36-2.59-6.18-2.59h-1.18V57.47z M139.77,66.16V27.43h7.23v38.73H139.77z M152.8,66.16
		V27.43h6.92l9.94,19.91c0.17,0.41,0.49,1.21,0.93,2.46c0.42,1.2,0.9,2.67,1.43,4.37c-0.11-1.61-0.21-3.04-0.28-4.3
		c-0.07-1.23-0.1-2.36-0.1-3.32V27.43h6.84v38.73h-6.84l-9.95-20c-0.2-0.42-0.55-1.22-1-2.47c-0.39-1.22-0.87-2.65-1.39-4.32
		c0.14,1.61,0.24,3.08,0.31,4.32c0.07,1.25,0.11,2.36,0.11,3.32v19.15H152.8z M191.09,51.67h7.12l-2.68-12.77
		c-0.07-0.4-0.21-1.02-0.31-1.89c-0.14-0.87-0.34-1.96-0.59-3.34c-0.14,0.96-0.32,1.87-0.45,2.75c-0.14,0.85-0.32,1.67-0.45,2.47
		L191.09,51.67z M181.05,66.16l9.11-38.73h8.99l9.04,38.73h-7.13l-1.32-6.96h-10.21l-1.35,6.96H181.05z M210.71,66.16V27.43h16.09
		v8.48h-9.1v6.73h8.62v8.29h-8.62v15.23H210.71z M237.02,51.67h7.16l-2.67-12.77c-0.1-0.4-0.21-1.02-0.38-1.89
		c-0.14-0.87-0.31-1.96-0.52-3.34c-0.14,0.96-0.32,1.87-0.45,2.75c-0.17,0.85-0.31,1.67-0.48,2.47L237.02,51.67z M226.98,66.16
		l9.11-38.73h8.96l9.06,38.73h-7.08l-1.36-6.96h-10.18l-1.35,6.96H226.98z M256.65,66.16V27.43h7.46c2.99,0,5.01,0.2,6.16,0.6
		c1.18,0.4,2.15,1.07,3.01,2.01c0.94,1.03,1.67,2.39,2.16,4.01c0.49,1.67,0.77,3.46,0.77,5.46c0,2.97-0.49,5.4-1.5,7.31
		c-0.98,1.87-2.43,3.12-4.38,3.74l7.16,15.61h-8.07l-6.07-15.18v15.18H256.65z M263.36,45.72h1.35c1.56,0,2.67-0.38,3.37-1.16
		c0.7-0.78,1.05-2.01,1.05-3.64c0-1.94-0.32-3.33-0.97-4.14c-0.66-0.83-1.74-1.23-3.38-1.23h-1.42V45.72z M310.39,66.16h-6.67
		l-1.6-16.73c-0.07-1.18-0.18-2.52-0.28-3.96c-0.08-1.43-0.14-3.01-0.21-4.73c-0.22,1.63-0.53,3.68-1.05,6.13
		c-0.03,0.51-0.17,0.89-0.2,1.14l-3.58,18.15h-4.76l-3.61-18.15c0-0.26-0.07-0.64-0.17-1.14c-0.49-2.45-0.83-4.49-1.01-6.09
		c-0.07,1.46-0.15,2.88-0.24,4.33c-0.07,1.45-0.25,2.86-0.34,4.32l-1.54,16.73h-6.67l4.06-38.73h7.1l3.96,19.98
		c0.03,0.13,0.07,0.37,0.14,0.67c0.37,1.78,0.62,3.32,0.73,4.57c0.04-0.67,0.13-1.45,0.24-2.26c0.15-0.85,0.31-1.85,0.56-3.04
		l4.03-19.91h7.13L310.39,66.16z M321.24,51.67h7.12l-2.68-12.77c-0.11-0.4-0.21-1.02-0.35-1.89c-0.13-0.87-0.34-1.96-0.59-3.34
		c-0.14,0.96-0.28,1.87-0.45,2.75c-0.15,0.85-0.28,1.67-0.42,2.47L321.24,51.67z M311.16,66.16l9.1-38.73h8.96l9.1,38.73h-7.16
		l-1.31-6.96h-10.21l-1.32,6.96H311.16z"/>
	<g>
		<path class="st1" d="M70.78,82.18v-2.21h2.12v2.21H70.78z"/>
		<path class="st1" d="M75.72,82.18v-2.21h2.12v2.21H75.72z"/>
		<path class="st1" d="M80.66,82.18v-2.21h2.12v2.21H80.66z"/>
		<path class="st1" d="M90.87,82.18v-1.25c-0.29,0.45-0.67,0.8-1.15,1.05c-0.48,0.26-0.98,0.39-1.5,0.39
			c-0.54,0-1.02-0.12-1.45-0.37c-0.43-0.25-0.74-0.59-0.93-1.04s-0.29-1.06-0.29-1.85v-5.29h2.12v3.84c0,1.18,0.04,1.9,0.12,2.16
			c0.08,0.27,0.22,0.48,0.43,0.63c0.21,0.16,0.47,0.23,0.78,0.23c0.36,0,0.69-0.1,0.97-0.31c0.29-0.21,0.48-0.46,0.59-0.77
			c0.11-0.31,0.16-1.06,0.16-2.26v-3.53h2.12v8.36H90.87z"/>
		<path class="st1" d="M104.61,82.18h-2.12v-4.27c0-0.9-0.04-1.49-0.14-1.75c-0.09-0.27-0.24-0.47-0.44-0.62
			c-0.2-0.15-0.45-0.22-0.73-0.22c-0.37,0-0.7,0.11-0.99,0.32c-0.29,0.21-0.49,0.49-0.6,0.83c-0.11,0.35-0.16,0.99-0.16,1.92v3.79
			h-2.12v-8.36h1.97v1.23c0.7-0.95,1.58-1.42,2.64-1.42c0.47,0,0.9,0.09,1.28,0.26s0.68,0.4,0.88,0.67c0.2,0.27,0.34,0.58,0.41,0.93
			c0.08,0.35,0.12,0.84,0.12,1.49V82.18z"/>
		<path class="st1" d="M121.29,82.18h-2.12v-4.27c0-0.9-0.04-1.49-0.14-1.75c-0.09-0.27-0.24-0.47-0.44-0.62
			c-0.2-0.15-0.45-0.22-0.73-0.22c-0.37,0-0.7,0.11-0.99,0.32c-0.29,0.21-0.49,0.49-0.6,0.83c-0.11,0.35-0.16,0.99-0.16,1.92v3.79
			h-2.12v-8.36h1.97v1.23c0.7-0.95,1.58-1.42,2.64-1.42c0.47,0,0.9,0.09,1.28,0.26s0.68,0.4,0.88,0.67c0.2,0.27,0.34,0.58,0.41,0.93
			c0.08,0.35,0.12,0.84,0.12,1.49V82.18z"/>
		<path class="st1" d="M131.01,82.18v-1.25c-0.29,0.45-0.67,0.8-1.15,1.05c-0.48,0.26-0.98,0.39-1.5,0.39
			c-0.54,0-1.02-0.12-1.45-0.37c-0.43-0.25-0.74-0.59-0.93-1.04s-0.29-1.06-0.29-1.85v-5.29h2.12v3.84c0,1.18,0.04,1.9,0.12,2.16
			c0.08,0.27,0.22,0.48,0.43,0.63c0.21,0.16,0.47,0.23,0.78,0.23c0.36,0,0.69-0.1,0.97-0.31c0.29-0.21,0.48-0.46,0.59-0.77
			c0.11-0.31,0.16-1.06,0.16-2.26v-3.53h2.12v8.36H131.01z"/>
		<path class="st1" d="M142.11,79.52l2.11,0.37c-0.27,0.81-0.7,1.42-1.29,1.85c-0.59,0.42-1.32,0.63-2.2,0.63
			c-1.39,0-2.42-0.48-3.09-1.43c-0.53-0.76-0.79-1.72-0.79-2.88c0-1.39,0.35-2.47,1.04-3.26c0.69-0.79,1.57-1.18,2.63-1.18
			c1.19,0,2.13,0.41,2.82,1.23c0.69,0.82,1.02,2.08,0.99,3.78h-5.31c0.01,0.66,0.19,1.17,0.51,1.53c0.33,0.37,0.73,0.55,1.22,0.55
			c0.33,0,0.61-0.09,0.84-0.28C141.82,80.24,141.99,79.94,142.11,79.52z M142.23,77.28c-0.01-0.64-0.17-1.13-0.47-1.46
			c-0.3-0.33-0.67-0.5-1.1-0.5c-0.46,0-0.84,0.18-1.15,0.53c-0.3,0.35-0.45,0.83-0.45,1.43H142.23z"/>
		<path class="st1" d="M150.16,82.18l-3.23-8.36h2.22l1.51,4.27l0.44,1.43c0.12-0.36,0.19-0.6,0.22-0.72
			c0.07-0.24,0.15-0.47,0.23-0.71l1.52-4.27h2.18l-3.18,8.36H150.16z"/>
		<path class="st1" d="M157.96,77.88c0-0.74,0.17-1.45,0.52-2.13c0.35-0.69,0.84-1.21,1.47-1.58c0.64-0.36,1.35-0.54,2.13-0.54
			c1.21,0,2.2,0.41,2.98,1.23c0.77,0.82,1.16,1.86,1.16,3.11c0,1.27-0.39,2.31-1.17,3.15s-1.77,1.25-2.95,1.25
			c-0.73,0-1.43-0.17-2.1-0.52c-0.67-0.35-1.17-0.85-1.52-1.52C158.13,79.65,157.96,78.84,157.96,77.88z M160.13,78
			c0,0.83,0.19,1.46,0.57,1.91c0.38,0.44,0.84,0.66,1.39,0.66c0.55,0,1.02-0.22,1.39-0.66c0.37-0.44,0.56-1.08,0.56-1.92
			c0-0.82-0.19-1.45-0.56-1.89c-0.37-0.44-0.84-0.66-1.39-0.66c-0.55,0-1.02,0.22-1.39,0.66C160.32,76.53,160.13,77.17,160.13,78z"
			/>
		<path class="st1" d="M182.1,76.29l-2.09,0.39c-0.07-0.44-0.23-0.76-0.48-0.98s-0.57-0.33-0.97-0.33c-0.53,0-0.95,0.19-1.26,0.57
			c-0.31,0.38-0.47,1.02-0.47,1.91c0,0.99,0.16,1.69,0.48,2.1s0.75,0.61,1.29,0.61c0.4,0,0.73-0.12,0.99-0.36
			c0.26-0.24,0.44-0.65,0.54-1.23l2.08,0.37c-0.22,1-0.63,1.75-1.24,2.26c-0.61,0.51-1.44,0.76-2.47,0.76c-1.17,0-2.1-0.39-2.8-1.16
			s-1.04-1.84-1.04-3.2c0-1.38,0.35-2.46,1.05-3.22c0.7-0.77,1.64-1.15,2.83-1.15c0.97,0,1.75,0.22,2.33,0.66
			C181.44,74.72,181.85,75.39,182.1,76.29z"/>
		<path class="st1" d="M185.12,77.88c0-0.74,0.17-1.45,0.52-2.13c0.35-0.69,0.84-1.21,1.47-1.58c0.64-0.36,1.35-0.54,2.13-0.54
			c1.21,0,2.2,0.41,2.98,1.23c0.77,0.82,1.16,1.86,1.16,3.11c0,1.27-0.39,2.31-1.17,3.15s-1.77,1.25-2.95,1.25
			c-0.73,0-1.43-0.17-2.1-0.52c-0.67-0.35-1.17-0.85-1.52-1.52C185.29,79.65,185.12,78.84,185.12,77.88z M187.29,78
			c0,0.83,0.19,1.46,0.57,1.91c0.38,0.44,0.84,0.66,1.39,0.66c0.55,0,1.02-0.22,1.39-0.66c0.37-0.44,0.56-1.08,0.56-1.92
			c0-0.82-0.19-1.45-0.56-1.89c-0.37-0.44-0.84-0.66-1.39-0.66c-0.55,0-1.02,0.22-1.39,0.66C187.48,76.53,187.29,77.17,187.29,78z"
			/>
		<path class="st1" d="M204.63,82.18h-2.12v-4.27c0-0.9-0.04-1.49-0.14-1.75c-0.09-0.27-0.24-0.47-0.44-0.62
			c-0.2-0.15-0.45-0.22-0.73-0.22c-0.37,0-0.7,0.11-0.99,0.32c-0.29,0.21-0.49,0.49-0.6,0.83c-0.11,0.35-0.16,0.99-0.16,1.92v3.79
			h-2.12v-8.36h1.97v1.23c0.7-0.95,1.58-1.42,2.64-1.42c0.47,0,0.9,0.09,1.28,0.26s0.68,0.4,0.88,0.67c0.2,0.27,0.34,0.58,0.41,0.93
			c0.08,0.35,0.12,0.84,0.12,1.49V82.18z"/>
		<path class="st1" d="M216.06,76.29l-2.09,0.39c-0.07-0.44-0.23-0.76-0.48-0.98s-0.57-0.33-0.97-0.33c-0.53,0-0.95,0.19-1.26,0.57
			c-0.31,0.38-0.47,1.02-0.47,1.91c0,0.99,0.16,1.69,0.48,2.1s0.75,0.61,1.29,0.61c0.4,0,0.73-0.12,0.99-0.36
			c0.26-0.24,0.44-0.65,0.54-1.23l2.08,0.37c-0.22,1-0.63,1.75-1.24,2.26c-0.61,0.51-1.44,0.76-2.47,0.76c-1.17,0-2.1-0.39-2.8-1.16
			s-1.04-1.84-1.04-3.2c0-1.38,0.35-2.46,1.05-3.22c0.7-0.77,1.64-1.15,2.83-1.15c0.97,0,1.75,0.22,2.33,0.66
			C215.39,74.72,215.81,75.39,216.06,76.29z"/>
		<path class="st1" d="M224.2,79.52l2.11,0.37c-0.27,0.81-0.7,1.42-1.29,1.85c-0.59,0.42-1.32,0.63-2.2,0.63
			c-1.39,0-2.42-0.48-3.09-1.43c-0.53-0.76-0.79-1.72-0.79-2.88c0-1.39,0.35-2.47,1.04-3.26c0.69-0.79,1.57-1.18,2.63-1.18
			c1.19,0,2.13,0.41,2.82,1.23c0.69,0.82,1.02,2.08,0.99,3.78h-5.31c0.01,0.66,0.19,1.17,0.51,1.53c0.33,0.37,0.73,0.55,1.22,0.55
			c0.33,0,0.61-0.09,0.84-0.28C223.92,80.24,224.09,79.94,224.2,79.52z M224.32,77.28c-0.01-0.64-0.17-1.13-0.47-1.46
			c-0.3-0.33-0.67-0.5-1.1-0.5c-0.46,0-0.84,0.18-1.15,0.53c-0.3,0.35-0.45,0.83-0.45,1.43H224.32z"/>
		<path class="st1" d="M229.99,73.81h1.98v1.23c0.26-0.42,0.6-0.76,1.04-1.02s0.92-0.39,1.46-0.39c0.93,0,1.72,0.38,2.37,1.14
			c0.65,0.76,0.97,1.82,0.97,3.18c0,1.4-0.33,2.48-0.98,3.26s-1.45,1.16-2.38,1.16c-0.44,0-0.84-0.09-1.2-0.28s-0.74-0.5-1.13-0.94
			v4.21h-2.12V73.81z M232.09,77.85c0,0.94,0.18,1.63,0.54,2.08c0.36,0.45,0.79,0.67,1.3,0.67c0.49,0,0.9-0.21,1.23-0.62
			c0.33-0.41,0.49-1.09,0.49-2.03c0-0.88-0.17-1.53-0.5-1.95c-0.34-0.43-0.75-0.64-1.25-0.64c-0.52,0-0.95,0.21-1.29,0.63
			C232.26,76.42,232.09,77.04,232.09,77.85z"/>
		<path class="st1" d="M245.46,73.81v1.76h-1.45v3.37c0,0.68,0.01,1.08,0.04,1.19c0.03,0.11,0.09,0.21,0.19,0.28
			c0.1,0.07,0.22,0.11,0.36,0.11c0.2,0,0.48-0.07,0.85-0.21l0.18,1.72c-0.49,0.22-1.05,0.33-1.67,0.33c-0.38,0-0.73-0.07-1.03-0.2
			s-0.53-0.31-0.67-0.52c-0.14-0.21-0.24-0.5-0.3-0.86c-0.04-0.26-0.07-0.78-0.07-1.56v-3.65h-0.97v-1.76h0.97v-1.66l2.13-1.29v2.95
			H245.46z"/>
		<path class="st1" d="M247.46,77.88c0-0.74,0.17-1.45,0.52-2.13c0.35-0.69,0.84-1.21,1.47-1.58c0.64-0.36,1.35-0.54,2.13-0.54
			c1.21,0,2.2,0.41,2.98,1.23c0.77,0.82,1.16,1.86,1.16,3.11c0,1.27-0.39,2.31-1.17,3.15s-1.77,1.25-2.95,1.25
			c-0.73,0-1.43-0.17-2.1-0.52c-0.67-0.35-1.17-0.85-1.52-1.52C247.63,79.65,247.46,78.84,247.46,77.88z M249.63,78
			c0,0.83,0.19,1.46,0.57,1.91c0.38,0.44,0.84,0.66,1.39,0.66c0.55,0,1.02-0.22,1.39-0.66c0.37-0.44,0.56-1.08,0.56-1.92
			c0-0.82-0.19-1.45-0.56-1.89c-0.37-0.44-0.84-0.66-1.39-0.66c-0.55,0-1.02,0.22-1.39,0.66C249.82,76.53,249.63,77.17,249.63,78z"
			/>
		<path class="st1" d="M269.26,79.52l2.11,0.37c-0.27,0.81-0.7,1.42-1.29,1.85c-0.59,0.42-1.32,0.63-2.2,0.63
			c-1.39,0-2.42-0.48-3.09-1.43c-0.53-0.76-0.79-1.72-0.79-2.88c0-1.39,0.35-2.47,1.04-3.26c0.69-0.79,1.57-1.18,2.63-1.18
			c1.19,0,2.13,0.41,2.82,1.23c0.69,0.82,1.02,2.08,0.99,3.78h-5.31c0.01,0.66,0.19,1.17,0.51,1.53c0.33,0.37,0.73,0.55,1.22,0.55
			c0.33,0,0.61-0.09,0.84-0.28C268.97,80.24,269.14,79.94,269.26,79.52z M269.38,77.28c-0.01-0.64-0.17-1.13-0.47-1.46
			c-0.3-0.33-0.67-0.5-1.1-0.5c-0.46,0-0.84,0.18-1.15,0.53c-0.3,0.35-0.45,0.83-0.45,1.43H269.38z"/>
		<path class="st1" d="M282.39,82.18h-2.12v-4.27c0-0.9-0.04-1.49-0.14-1.75c-0.09-0.27-0.24-0.47-0.44-0.62
			c-0.2-0.15-0.45-0.22-0.73-0.22c-0.37,0-0.7,0.11-0.99,0.32c-0.29,0.21-0.49,0.49-0.6,0.83c-0.11,0.35-0.16,0.99-0.16,1.92v3.79
			h-2.12v-8.36h1.97v1.23c0.7-0.95,1.58-1.42,2.64-1.42c0.47,0,0.9,0.09,1.28,0.26s0.68,0.4,0.88,0.67c0.2,0.27,0.34,0.58,0.41,0.93
			c0.08,0.35,0.12,0.84,0.12,1.49V82.18z"/>
		<path class="st1" d="M291.04,79.79l2.13-0.34c0.09,0.43,0.27,0.76,0.55,0.98c0.28,0.22,0.66,0.33,1.16,0.33
			c0.55,0,0.96-0.11,1.24-0.32c0.19-0.15,0.28-0.34,0.28-0.59c0-0.17-0.05-0.31-0.15-0.42c-0.11-0.1-0.34-0.2-0.71-0.29
			c-1.71-0.39-2.79-0.75-3.25-1.08c-0.63-0.45-0.95-1.08-0.95-1.88c0-0.72,0.27-1.33,0.82-1.83c0.55-0.49,1.4-0.74,2.55-0.74
			c1.1,0,1.91,0.19,2.44,0.56c0.53,0.37,0.9,0.92,1.1,1.65l-2,0.39c-0.08-0.33-0.25-0.57-0.49-0.75c-0.24-0.17-0.58-0.26-1.02-0.26
			c-0.56,0-0.96,0.08-1.2,0.24c-0.16,0.12-0.24,0.27-0.24,0.45c0,0.16,0.07,0.29,0.21,0.4c0.19,0.15,0.85,0.35,1.98,0.62
			s1.92,0.6,2.36,0.98c0.44,0.39,0.66,0.94,0.66,1.65c0,0.77-0.31,1.42-0.92,1.98c-0.61,0.55-1.52,0.83-2.72,0.83
			c-1.09,0-1.95-0.23-2.59-0.69C291.65,81.21,291.23,80.58,291.04,79.79z"/>
		<path class="st1" d="M303.85,76.37L301.93,76c0.22-0.81,0.59-1.41,1.12-1.8c0.53-0.39,1.31-0.58,2.35-0.58
			c0.95,0,1.65,0.12,2.11,0.35c0.46,0.23,0.79,0.53,0.98,0.89c0.19,0.36,0.28,1.02,0.28,1.98l-0.02,2.58c0,0.74,0.03,1.28,0.1,1.63
			c0.07,0.35,0.19,0.72,0.38,1.12h-2.1c-0.05-0.15-0.12-0.37-0.2-0.65c-0.04-0.13-0.06-0.22-0.08-0.26
			c-0.36,0.37-0.75,0.64-1.16,0.83c-0.41,0.18-0.85,0.28-1.32,0.28c-0.82,0-1.47-0.23-1.95-0.7c-0.47-0.47-0.71-1.06-0.71-1.77
			c0-0.47,0.11-0.89,0.32-1.26c0.22-0.37,0.52-0.65,0.91-0.85c0.39-0.2,0.95-0.37,1.69-0.52c0.99-0.19,1.68-0.38,2.06-0.54V76.5
			c0-0.43-0.1-0.73-0.3-0.91c-0.2-0.18-0.58-0.27-1.14-0.27c-0.38,0-0.67,0.08-0.88,0.23C304.16,75.71,303.98,75.98,303.85,76.37z
			 M306.69,78.16c-0.27,0.09-0.7,0.21-1.29,0.34c-0.59,0.13-0.97,0.26-1.15,0.39c-0.28,0.2-0.42,0.46-0.42,0.78
			c0,0.31,0.11,0.58,0.33,0.8c0.22,0.23,0.5,0.34,0.84,0.34c0.38,0,0.75-0.13,1.09-0.39c0.26-0.2,0.42-0.44,0.51-0.73
			c0.05-0.19,0.08-0.55,0.08-1.08V78.16z"/>
		<path class="st1" d="M312.76,82.18V70.63h2.12v11.54H312.76z"/>
		<path class="st1" d="M322.97,82.18v-1.25c-0.29,0.45-0.67,0.8-1.15,1.05c-0.48,0.26-0.98,0.39-1.5,0.39
			c-0.54,0-1.02-0.12-1.45-0.37c-0.43-0.25-0.74-0.59-0.93-1.04s-0.29-1.06-0.29-1.85v-5.29h2.12v3.84c0,1.18,0.04,1.9,0.12,2.16
			c0.08,0.27,0.22,0.48,0.43,0.63c0.21,0.16,0.47,0.23,0.78,0.23c0.36,0,0.69-0.1,0.97-0.31c0.29-0.21,0.48-0.46,0.59-0.77
			c0.11-0.31,0.16-1.06,0.16-2.26v-3.53h2.12v8.36H322.97z"/>
		<path class="st1" d="M336.78,82.18h-1.97v-1.23c-0.33,0.48-0.71,0.83-1.16,1.07c-0.44,0.23-0.89,0.35-1.35,0.35
			c-0.92,0-1.71-0.39-2.36-1.16s-0.98-1.85-0.98-3.24c0-1.42,0.32-2.49,0.96-3.23c0.64-0.74,1.45-1.11,2.42-1.11
			c0.89,0,1.67,0.39,2.32,1.17v-4.16h2.12V82.18z M331.12,77.81c0,0.89,0.12,1.54,0.35,1.94c0.34,0.58,0.82,0.87,1.43,0.87
			c0.49,0,0.9-0.22,1.24-0.65c0.34-0.43,0.51-1.08,0.51-1.94c0-0.96-0.17-1.65-0.5-2.08c-0.33-0.42-0.76-0.63-1.27-0.63
			c-0.5,0-0.92,0.21-1.26,0.63C331.29,76.36,331.12,76.99,331.12,77.81z"/>
	</g>
	<path class="st2" d="M27.63,41.79v-0.23c6.19-1.36,10.98-8.89,6.52-13.67H0.84c1.06,2.44,2.67,4.68,4.77,6.64
		c-0.03,0.04-0.03,0.07-0.03,0.11c4.62,3.85,12.61,7.38,18.95,7.38v11.55c1.82,0.44,1.35,0.35,3.09,0.32V41.79z"/>
	<path id="CULEBRA" class="st3" d="M35.3,27.5c3.8,4.66,1.04,11.39-5.3,14.34c-1.37,0.67-0.49,0.13-1.59,0.83v3.23
		c0.73,0,2.12-0.42,2.92-0.67c13.49-4.42,15.25-18.35,5.89-22.45c-2.23-0.95-8.04-2.12-10.89-2.58c-3.22-0.48-10.2-3.18-11.17-6.69
		C12.2,3.06,25.36,1.52,27.02,8.36c0.46,1.8-4,0.04-0.47,6.09c0.51,0.85,2.23,2.81,2.63,2.88c0.44,0.09,0.68-0.07,0.9-0.25
		c0.23-0.23,1.18-2.12,1.26-2.47l0.84-3.94c0.06-0.81-1.11-1.59-1.59-1.84c-0.54-0.23-0.6-0.3-0.69-0.58
		c-0.86-2.3-1.13-4.1-3.93-5.48C15.6-2.36,5.04,10.09,14.95,19.01C20.68,24.13,33.51,24.97,35.3,27.5L35.3,27.5z"/>
	<path class="st3" d="M15.79,49.44c0,10.97,17.7,10.3,21.78,4.45c3.98-5.65-1.12-8.05-9.05-5.95v2.31c0.73-0.05,4.44-1.34,4.44,1.78
		c0,2.58-11.11,5.6-12.58-1.41c-0.27-1.24,1.08-3.43,3.46-4.15l0.11-3.61C18.49,42.85,15.79,47.97,15.79,49.44L15.79,49.44z"/>
	<path class="st3" d="M18.32,59.47c0,2.21,2.06,4.82,4.26,5.6c0.79,0.3,1.26,0.49,2.07,0.69c1.45,0.35,4.17,0.79,5.74,0.85
		c2.82,0.11,2.37-0.12,4.26,0.72c0.51,0.23,1.15,0.39,1.68,0.39c-0.03-1.15-2.54-2.12-3.49-2.37c-2.85-0.72-7.32-0.69-9.35-2.59
		c-1.36-1.31-1.76-2.81-1.65-4.1c-1.47-0.76-1.59-0.79-3.07-1.66C18.53,57.49,18.32,58.74,18.32,59.47L18.32,59.47z"/>
	<path class="st2" d="M24.54,62.44c0,0.3,0.38,0.37,0.67,0.51c0.24,0.11,1.61,0.48,1.85,0.51l0.64,0.09l0.03-4.71
		c-1.4-0.11-1.77-0.09-3.18-0.09V62.44z"/>
	<path class="st3" d="M21.1,51.52c0.48,0.99,1.17,1.73,2.09,2.16l0.67-0.74v-3.76C22.47,49.88,21.84,50.2,21.1,51.52L21.1,51.52z"/>
	<path class="st2" d="M50.54,27.89c-1.08,2.56-2.83,4.92-5.08,6.91c-0.29,0.23-0.53,0.49-0.8,0.69c-0.55,0.46-1.1,0.85-1.7,1.29
		c0.79-2.19,1.32-3.37,1.32-6.04c0-0.58-0.11-1.09-0.2-1.5c-0.09-0.51-0.31-0.95-0.33-1.36H50.54z"/>
	<path class="st2" d="M42.99,75.58H27.24h-2.41H8.66c0.29-0.21,0.87-0.35,1.22-0.46c0.42-0.11,0.73-0.18,1.24-0.32
		c2.4-0.55,4.02-0.32,5.54-0.76c0.55-0.11,0.59-0.25,1.06-0.46c3.61-1.54,4.29-0.37,6.09-1.8c0.69-0.51,0.73-1.15,0.73-2.28
		c0-0.99,0-1.98,0-2.98l2.97,0.62c0,0-0.03,1.57-0.03,2.35c0,1.13,0.07,1.77,0.71,2.28c1.79,1.43,2.45,0.26,5.96,1.8
		c0.44,0.21,0.51,0.35,1.06,0.46c1.48,0.44,3.05,0.21,5.38,0.76c0.48,0.14,0.79,0.21,1.22,0.32C42.15,75.24,42.72,75.37,42.99,75.58
		L42.99,75.58z"/>
</g>
<g>
</g>
<g>
</g>
<g>
</g>
<g>
</g>
<g>
</g>
<g>
</g>
</svg>
